<?xml version="1.0" standalone="no"?><!DOCTYPE svg PUBLIC "-//W3C//DTD SVG 1.1//EN" "http://www.w3.org/Graphics/SVG/1.1/DTD/svg11.dtd"><svg t="1665216846001" class="icon" viewBox="0 0 1024 1024" version="1.1" xmlns="http://www.w3.org/2000/svg" p-id="2032" xmlns:xlink="http://www.w3.org/1999/xlink" width="200" height="200"><path d="M442.945829 238.570057h228.717714c6.026971 0 10.971429 4.937143 10.971428 10.971429v35.115885c0 6.034286-4.944457 10.971429-10.971428 10.971429h-228.717714c-6.034286 0-10.971429-4.937143-10.971429-10.971429v-35.115885c0-6.034286 4.937143-10.971429 10.971429-10.971429z" fill="#FFD300" p-id="2033"></path><path d="M429.129143 280.210286H397.165714v50.263771l-33.236114 8.901486V251.911314l65.199543-2.640457zM685.6192 280.210286h31.963429v50.263771l33.236114 8.901486V251.911314l-65.199543-2.640457z" fill="#FFFFFF" p-id="2034"></path><path d="M246.3232 333.699657h624.157257a25.965714 25.965714 0 0 1 25.885257 25.885257v183.464229a25.973029 25.973029 0 0 1-25.885257 25.885257H246.3232a25.965714 25.965714 0 0 1-25.885257-25.885257V359.584914a25.943771 25.943771 0 0 1 25.885257-25.885257z" fill="#FFD300" p-id="2035"></path><path d="M356.7104 484.944457h58.1632c7.402057 0 13.450971 6.056229 13.450971 13.450972v118.8352a13.487543 13.487543 0 0 1-13.450971 13.450971h-58.1632a13.487543 13.487543 0 0 1-13.450971-13.450971V498.395429c0-7.409371 6.063543-13.450971 13.450971-13.450972zM704.811886 484.944457h58.1632c7.402057 0 13.450971 6.056229 13.450971 13.450972v118.8352a13.487543 13.487543 0 0 1-13.450971 13.450971h-58.1632a13.487543 13.487543 0 0 1-13.450972-13.450971V498.395429c0-7.409371 6.048914-13.450971 13.450972-13.450972z" fill="#FFFFFF" p-id="2036"></path><path d="M454.538971 431.7696a103.548343 40.996571 0 1 0 207.096686 0 103.548343 40.996571 0 1 0-207.096686 0Z" fill="#FFFFFF" p-id="2037"></path><path d="M237.6192 567.413029v212.970057h117.189486l11.585828-16.325486 383.904915-0.526629 16.318171 20.538515 100.059429-3.159772 3.796114-211.982628z" fill="#FFFFFF" p-id="2038"></path><path d="M896.365714 333.714286l-0.014628-0.014629-0.014629-0.014628a20.099657 20.099657 0 0 0-14.218971-5.924572h-125.045029V245.672229H690.834286a11.505371 11.505371 0 0 0-4.593372-8.952686 13.970286 13.970286 0 0 0-8.586971-2.911086H438.710857c-3.247543 0-6.2976 1.119086-8.586971 2.911086-2.801371 2.194286-4.542171 5.354057-4.593372 8.952686h-65.835885v82.088228H234.664229c-5.5296 0-10.561829 2.274743-14.226286 5.9392l-0.014629-0.014628a20.114286 20.114286 0 0 0-5.931885 14.248228V554.715429c0 5.5296 2.282057 10.554514 5.931885 14.211657l0.029257 0.029257c2.940343 2.954971 6.8096 5.002971 11.095772 5.668571v200.155429c0 4.227657 1.733486 8.082286 4.512914 10.869028 2.794057 2.786743 6.641371 4.527543 10.876343 4.527543H358.677943l2.267428-3.854628 7.248458-12.419657h380.240457l8.433371 12.785371 2.296686 3.496229H859.772343c4.205714 0 8.060343-1.726171 10.839771-4.512915l0.021943-0.029257c2.786743-2.786743 4.520229-6.626743 4.520229-10.847086V574.888229h6.933943c5.522286 0 10.5472-2.274743 14.211657-5.931886l0.021943-0.014629 0.014628-0.014628c3.657143-3.657143 5.924571-8.689371 5.924572-14.211657V347.940571a19.989943 19.989943 0 0 0-5.895315-14.226285z m-205.121828-72.4992h50.285714v66.545371h-12.346514V273.554286h-37.953829l0.014629-12.3392z m-15.959772-11.871086v13.187657c-14.6944 0.343771-23.734857-1.353143-30.544457-4.973714-3.752229-2.004114-7.080229-4.7616-10.466743-8.213943h41.0112z m-176.223085 13.129143c5.12-5.624686 9.603657-10.532571 20.553142-13.114514h93.959315l-0.029257 0.014628c8.133486 9.610971 14.474971 16.830171 23.925028 21.8624 9.135543 4.871314 20.399543 7.175314 37.829486 6.802286v7.380114h-51.807086c-5.441829-9.391543-13.399771-16.632686-22.6816-21.562514a67.547429 67.547429 0 0 0-29.3376-7.665372 67.196343 67.196343 0 0 0-30.1568 5.946515 60.284343 60.284343 0 0 0-26.397257 23.274057h-48.442514c5.697829-1.9456 11.563886-5.0176 18.607543-10.0352 6.304914-4.490971 10.276571-8.8576 13.9776-12.9024z m105.0624 22.9376h-69.573486a45.0048 45.0048 0 0 1 13.202286-9.186743 51.792457 51.792457 0 0 1 23.230171-4.5568 51.982629 51.982629 0 0 1 22.535314 5.909943 44.324571 44.324571 0 0 1 10.605715 7.8336z m-163.042743-31.963429v-4.103314h48.939885a226.377143 226.377143 0 0 0-2.4576 2.669714c-3.181714 3.488914-6.597486 7.241143-11.490742 10.737372-12.880457 9.172114-21.269943 10.115657-34.991543 10.993371v-20.297143z m-10.9568 44.609829a13.970286 13.970286 0 0 0 8.586971 2.911086h238.943086c3.240229 0 6.290286-1.119086 8.586971-2.911086 2.801371-2.194286 4.549486-5.346743 4.593372-8.952686h22.798628v38.663314H403.134171v-38.663314h22.403658c0.036571 3.605943 1.806629 6.7584 4.586057 8.952686z m-54.871772-36.842057h50.2784V273.554286H387.584v54.213485h-12.331886v-66.552685zM234.664229 559.330743a4.608 4.608 0 0 1-3.247543-1.3312l-0.029257-0.029257a4.666514 4.666514 0 0 1-1.345829-3.254857v-27.077486h104.491886v31.6928H234.664229z m142.599314 199.021714l36.981028-63.305143c1.389714-2.399086 2.757486-3.913143 4.308115-4.717714 1.770057-0.914286 4.315429-1.272686 7.855543-1.272686h258.589257c2.896457 0 5.207771 0.702171 7.050971 1.857829 1.9968 1.243429 3.642514 3.072 5.024914 5.141943v0.029257l41.106286 62.266514H377.263543z m482.3552 16.274286h-92.123429l-57.504914-87.098514h-0.014629c-2.538057-3.832686-5.690514-7.285029-9.735314-9.801143-4.1984-2.625829-9.208686-4.227657-15.250286-4.227657H426.408229c-5.9392 0-10.686171 0.8704-14.8992 3.042742-4.439771 2.282057-7.789714 5.697829-10.693486 10.656915l-51.0464 87.427657H247.083886v-199.753143h87.4496v44.112457c0 5.756343 2.3552 11.000686 6.144 14.782172 3.803429 3.803429 9.033143 6.144 14.7968 6.144h60.408685c5.763657 0 11.008-2.3552 14.789486-6.144a20.845714 20.845714 0 0 0 6.151314-14.782172v-44.112457h245.123658v44.112457c0 5.756343 2.3552 11.000686 6.144 14.782172 3.803429 3.803429 9.033143 6.144 14.7968 6.144h60.408685c5.741714 0 10.971429-2.3552 14.767543-6.144h0.036572a20.845714 20.845714 0 0 0 6.151314-14.782172v-44.112457h75.381028l-0.014628 199.753143z m-438.345143-199.745829v44.105143a5.441829 5.441829 0 0 1-5.397943 5.397943h-60.408686a5.412571 5.412571 0 0 1-5.405257-5.397943v-44.105143h71.211886z m-71.189943-15.550171v-62.698057c0-1.477486 0.607086-2.823314 1.594514-3.810743a5.361371 5.361371 0 0 1 3.810743-1.5872h60.408686a5.412571 5.412571 0 0 1 5.397943 5.397943v62.698057h-71.211886z m86.740114 0v-31.6928h245.123658v31.6928H436.823771z m331.871086-62.712686v62.698057h-71.189943v-62.698057a5.339429 5.339429 0 0 1 1.594515-3.803428 5.376 5.376 0 0 1 3.810742-1.5872h60.408686c1.4848 0 2.837943 0.607086 3.818057 1.572571l-0.021943 0.014629c0.965486 0.987429 1.579886 2.340571 1.579886 3.803428z m0 78.262857v44.105143a5.383314 5.383314 0 0 1-1.594514 3.810743l0.021943 0.014629a5.500343 5.500343 0 0 1-3.818057 1.572571h-60.408686a5.434514 5.434514 0 0 1-5.405257-5.397943v-44.105143h71.204571z m118.030629-20.165485c0 1.28-0.512 2.428343-1.338515 3.240228l-0.029257 0.029257a4.571429 4.571429 0 0 1-3.254857 1.345829h-97.865143v-31.6928h102.487772v27.077486z m0-42.627658H784.237714v-15.455085c0-5.763657-2.3552-11.008-6.151314-14.7968h-0.029257a20.823771 20.823771 0 0 0-14.767543-6.144h-60.408686c-5.763657 0-11.008 2.3552-14.7968 6.144a20.896914 20.896914 0 0 0-6.144 14.7968v15.455085H436.823771v-15.455085c0-5.763657-2.3552-11.008-6.151314-14.7968a20.8896 20.8896 0 0 0-14.789486-6.144H355.474286c-5.763657 0-11.008 2.3552-14.7968 6.144a20.896914 20.896914 0 0 0-6.144 14.7968v15.455085H230.0416V347.933257c0-1.258057 0.526629-2.421029 1.375086-3.254857v-0.029257a4.578743 4.578743 0 0 1 3.247543-1.338514h647.453257c1.287314 0 2.442971 0.512 3.254857 1.338514l0.029257 0.029257c0.811886 0.8192 1.338514 1.974857 1.338514 3.254857l-0.014628 164.154514z" fill="#231F20" p-id="2039"></path><path d="M363.871086 587.680914h43.6224v15.550172h-43.6224zM711.292343 587.680914h43.607771v15.550172h-43.607771zM633.9584 395.000686c-19.697371-8.060343-46.716343-13.041371-76.3392-13.041372-29.615543 0-56.612571 4.988343-76.324571 13.041372-21.789257 8.9088-35.269486 22.016-35.269486 37.185828s13.480229 28.277029 35.269486 37.185829c19.690057 8.067657 46.709029 13.041371 76.324571 13.041371 29.622857 0 56.619886-4.988343 76.3392-13.041371 21.789257-8.916114 35.262171-22.016 35.262171-37.185829 0-15.162514-13.480229-28.269714-35.262171-37.185828z m-5.8368 60.042971c-17.861486 7.306971-42.788571 11.8272-70.5024 11.8272-27.706514 0-52.618971-4.520229-70.495086-11.8272-15.784229-6.458514-25.5488-14.584686-25.5488-22.857143s9.764571-16.398629 25.5488-22.857143c17.861486-7.306971 42.788571-11.8272 70.495086-11.8272 27.713829 0 52.626286 4.520229 70.5024 11.8272 15.784229 6.458514 25.5488 14.584686 25.5488 22.857143 0 8.279771-9.764571 16.405943-25.5488 22.857143z" fill="#231F20" p-id="2040"></path></svg>