<?xml version="1.0" standalone="no"?><!DOCTYPE svg PUBLIC "-//W3C//DTD SVG 1.1//EN" "http://www.w3.org/Graphics/SVG/1.1/DTD/svg11.dtd"><svg t="1668864027044" class="icon" viewBox="0 0 1024 1024" version="1.1" xmlns="http://www.w3.org/2000/svg" p-id="1451" xmlns:xlink="http://www.w3.org/1999/xlink" width="200" height="200"><path d="M810.666667 213.333333h-85.333334V170.666667c0-51.2-34.133333-85.333333-85.333333-85.333334H384c-51.2 0-85.333333 34.133333-85.333333 85.333334v42.666666H213.333333c-25.6 0-42.666667 17.066667-42.666666 42.666667s17.066667 42.666667 42.666666 42.666667v512c0 72.533333 55.466667 128 128 128h341.333334c72.533333 0 128-55.466667 128-128V298.666667c25.6 0 42.666667-17.066667 42.666666-42.666667s-17.066667-42.666667-42.666666-42.666667zM384 170.666667h256l4.266667 42.666666H384V170.666667z m341.333333 640c0 25.6-17.066667 42.666667-42.666666 42.666666H341.333333c-25.6 0-42.666667-17.066667-42.666666-42.666666V298.666667h426.666666v512z" fill="#BBC3C9" p-id="1452"></path><path d="M426.666667 426.666667c-25.6 0-42.666667 17.066667-42.666667 42.666666v213.333334c0 25.6 17.066667 42.666667 42.666667 42.666666s42.666667-17.066667 42.666666-42.666666v-213.333334c0-25.6-17.066667-42.666667-42.666666-42.666666zM597.333333 426.666667c-25.6 0-42.666667 17.066667-42.666666 42.666666v213.333334c0 25.6 17.066667 42.666667 42.666666 42.666666s42.666667-17.066667 42.666667-42.666666v-213.333334c0-25.6-17.066667-42.666667-42.666667-42.666666z" fill="#BBC3C9" p-id="1453"></path></svg>